<svg fill="none" height="50" viewBox="0 0 50 50" width="50" xmlns="http://www.w3.org/2000/svg" xmlns:xlink="http://www.w3.org/1999/xlink"><clipPath id="a"><path d="m0 0h50v50h-50z"/></clipPath><g clip-path="url(#a)"><path d="m0 0h50v50h-50z" fill="#e7eaeb"/><g clip-rule="evenodd" fill-rule="evenodd"><path d="m25 50c13.8071 0 25-11.1929 25-25s-11.1929-25-25-25-25 11.1929-25 25 11.1929 25 25 25z" fill="#e7eaeb"/><path d="m42.2143 43.1294c-4.4829 4.2579-10.5434 6.8706-17.2142 6.8706-6.6707 0-12.7311-2.6126-17.21397-6.8704 2.87837-5.6466 6.29237-9.2091 11.89167-10.452-5.3163-2.0606-9.0053-7.3069-8.8071-13.328.2493-7.5797 6.5636-13.52922 14.1296-13.34546 7.566-.18376 13.8802 5.76576 14.1295 13.34546.1981 6.0211-3.4908 11.2674-8.8071 13.328 5.5992 1.2429 9.0133 4.8053 11.8916 10.4518zm-22.7098-17.677c-1.0516-1.1357-1.3757-2.2902-1.389-2.3388-.0632-.229-.0333-.4692.0843-.676.1171-.2067.3076-.3555.5366-.4185.0671-.0188.1368-.0298.2074-.0321.4105-.0193.7765.2526.8876.6495.0372.1312.9427 3.1596 5.0788 3.2783v.0035c.0305-.0003.0601-.0013.0902-.0018.0302.0005.0598.0015.0902.0018v-.0035c4.1362-.1187 5.0417-3.1471 5.0789-3.2783.1111-.3969.4771-.6688.8876-.6495.0705.0023.1403.0133.2074.0321.229.063.4194.2118.5366.4185.1176.2068.1476.447.0843.676-.0134.0486-.3374 1.2031-1.3891 2.3388-.9333 1.0073-2.6406 2.2014-5.4959 2.2452-2.8552-.0438-4.5625-1.2379-5.4959-2.2452zm-2.3233-8.093c0-.8167.6643-1.4811 1.4811-1.4811.8165 0 1.4812.6644 1.4812 1.4811s-.6647 1.4811-1.4812 1.4811c-.8168 0-1.4811-.6644-1.4811-1.4811zm14.1571-1.4811c.8167 0 1.4811.6644 1.4811 1.4811s-.6644 1.4811-1.4811 1.4811c-.8166 0-1.4812-.6644-1.4812-1.4811s.6646-1.4811 1.4812-1.4811z" fill="#b6bfc2"/></g></g></svg>